HIERARCHY
ROOT Hips
{
	OFFSET 0.000000 0.000000 0.000000
	CHANNELS 6 Xposition Yposition Zposition Zrotation Yrotation Xrotation 
	JOINT LowerBack
	{
		OFFSET 0.000000 0.000000 0.000000
		CHANNELS 3 Zrotation Yrotation Xrotation
		JOINT Spine
		{
			OFFSET 0.028270 2.035590 -0.193380
			CHANNELS 3 Zrotation Yrotation Xrotation
			JOINT Spine1
			{
				OFFSET 0.056720 2.048850 -0.042750
				CHANNELS 3 Zrotation Yrotation Xrotation
				JOINT Neck
				{
					OFFSET 0.000000 0.000000 0.000000
					CHANNELS 3 Zrotation Yrotation Xrotation
					JOINT Neck1
					{
						OFFSET -0.054170 1.746240 0.172020
						CHANNELS 3 Zrotation Yrotation Xrotation
						JOINT Head
						{
							OFFSET 0.104070 1.761360 -0.123970
							CHANNELS 3 Zrotation Yrotation Xrotation
							End Site
							{
								OFFSET 0.000000 0.000000 0.000000
							}
						}
					}
				}
				JOINT LeftShoulder
				{
					OFFSET 0.000000 0.000000 0.000000
					CHANNELS 3 Zrotation Yrotation Xrotation
					JOINT LeftArm
					{
						OFFSET 3.362410 1.200890 -0.311210
						CHANNELS 3 Zrotation Yrotation Xrotation
						JOINT LeftForeArm
						{
							OFFSET 4.983000 -0.000000 -0.000000
							CHANNELS 3 Zrotation Yrotation Xrotation
							JOINT LeftHand
							{
								OFFSET 3.483560 -0.000000 -0.000000
								CHANNELS 3 Zrotation Yrotation Xrotation
								JOINT LeftFingerBase
								{
									OFFSET 0.000000 0.000000 0.000000
									CHANNELS 3 Zrotation Yrotation Xrotation
									JOINT LeftHandIndex1
									{
										OFFSET 0.715260 -0.000000 -0.000000
										CHANNELS 3 Zrotation Yrotation Xrotation
										End Site
										{
											OFFSET 0.000000 0.000000 0.000000
										}
									}
								}
								JOINT LThumb
								{
									OFFSET 0.000000 0.000000 0.000000
									CHANNELS 3 Zrotation Yrotation Xrotation
									End Site
									{
										OFFSET 0.000000 0.000000 0.000000
									}
								}
							}
						}
					}
				}
				JOINT RightShoulder
				{
					OFFSET 0.000000 0.000000 0.000000
					CHANNELS 3 Zrotation Yrotation Xrotation
					JOINT RightArm
					{
						OFFSET -3.136600 1.374050 -0.404650
						CHANNELS 3 Zrotation Yrotation Xrotation
						JOINT RightForeArm
						{
							OFFSET -5.241900 -0.000000 -0.000000
							CHANNELS 3 Zrotation Yrotation Xrotation
							JOINT RightHand
							{
								OFFSET -3.444170 -0.000000 -0.000000
								CHANNELS 3 Zrotation Yrotation Xrotation
								JOINT RightFingerBase
								{
									OFFSET 0.000000 0.000000 0.000000
									CHANNELS 3 Zrotation Yrotation Xrotation
									JOINT RightHandIndex1
									{
										OFFSET -0.622530 -0.000000 -0.000000
										CHANNELS 3 Zrotation Yrotation Xrotation
										End Site
										{
											OFFSET 0.000000 0.000000 0.000000
										}
									}
								}
								JOINT RThumb
								{
									OFFSET 0.000000 0.000000 0.000000
									CHANNELS 3 Zrotation Yrotation Xrotation
									End Site
									{
										OFFSET 0.000000 0.000000 0.000000
									}
								}
							}
						}
					}
				}
			}
		}
	}
}
}
MOTION
Frames: 15
Frame Time: 0.008333
-1.974970 16.673630 0.118503 7.017485 63.578392 6.468156 -5.408395 0.237599 -2.354706 -1.476487 0.541840 -2.617908 -4.532955 0.458715 2.967956 10.309679 -15.308403 -9.013372 -1.193945 -0.075301 -0.350604 0.000000 0.000000 0.000000 -7.405980 26.811407 0.951186 -87.906715 27.089182 5.658340 -3.719721 -25.417963 -0.027425 -14.614965 9.289190 -1.216209 0.048851 -0.136379 -0.000000 0.000000 0.000000 0.000000 0.000000 0.000000 0.000000 10.474809 -10.406269 -0.704155 42.873031 9.811747 8.763027 1.318222 53.660198 0.006249 0.204616 5.331134 0.008054 0.049328 -0.158161 -0.000000 0.000000 0.000000 0.000000 0.000000 0.000000 0.000000 
-1.822824 16.656835 0.157375 7.319120 62.569965 6.588870 -5.691078 0.123490 -2.199079 -1.531330 0.452217 -2.607866 -4.557101 0.370129 2.906917 10.369985 -15.315343 -8.985335 -1.216305 -0.077366 -0.343277 0.000000 0.000000 0.000000 -7.287879 26.472636 0.953712 -87.763565 26.966194 7.108362 -3.666485 -25.888015 -0.026898 -14.750480 9.214674 -1.218122 0.053096 -0.135387 -0.000000 0.000000 0.000000 0.000000 0.000000 0.000000 0.000000 10.576267 -10.448066 -0.740099 43.372436 9.793673 8.926108 1.307346 54.116155 0.006248 0.214081 5.330790 0.008459 0.048893 -0.159304 -0.000000 0.000000 0.000000 0.000000 0.000000 0.000000 0.000000 
-1.674043 16.639840 0.197608 7.597210 61.556846 6.699338 -5.959880 -0.000393 -2.044825 -1.583232 0.351357 -2.599021 -4.583246 0.270326 2.841216 10.422310 -15.331286 -8.957603 -1.244216 -0.079898 -0.335701 0.000000 0.000000 0.000000 -7.147870 26.078078 0.951267 -87.513521 26.789210 8.497697 -3.611889 -26.328478 -0.026244 -14.745275 9.115023 -1.204628 0.055777 -0.134081 -0.000000 0.000000 0.000000 0.000000 0.000000 0.000000 0.000000 10.684884 -10.501911 -0.774735 43.958407 9.738859 9.097232 1.301621 54.562951 0.006321 0.241322 5.345344 0.009866 0.048539 -0.160448 0.000000 0.000000 0.000000 0.000000 0.000000 0.000000 0.000000 
-1.528373 16.622956 0.238862 7.830580 60.528849 6.782808 -6.200179 -0.130266 -1.896748 -1.629674 0.241898 -2.591652 -4.612179 0.161962 2.773143 10.467839 -15.355432 -8.930846 -1.277889 -0.082910 -0.328057 0.000000 0.000000 0.000000 -6.996038 25.641990 0.943202 -87.156506 26.555972 9.806023 -3.556691 -26.725881 -0.025491 -14.601476 9.002937 -1.178226 0.056866 -0.132562 -0.000000 0.000000 0.000000 0.000000 0.000000 0.000000 0.000000 10.804557 -10.565504 -0.807289 44.615783 9.651641 9.274794 1.301165 54.988331 0.006472 0.287310 5.378109 0.012174 0.048235 -0.161582 0.000000 0.000000 0.000000 0.000000 0.000000 0.000000 0.000000 
-1.385486 16.606468 0.280828 8.004192 59.476555 6.826815 -6.399886 -0.263044 -1.758483 -1.668594 0.126056 -2.585720 -4.644634 0.047289 2.705616 10.509012 -15.387038 -8.906041 -1.317467 -0.086398 -0.320644 0.000000 0.000000 0.000000 -6.841128 25.182367 0.929198 -86.692311 26.262696 11.022398 -3.501961 -27.065291 -0.024669 -14.328558 8.887335 -1.141117 0.056380 -0.130916 -0.000000 0.000000 0.000000 0.000000 0.000000 0.000000 0.000000 10.940681 -10.636856 -0.837458 45.329453 9.538135 9.456928 1.306054 55.377046 0.006696 0.349951 5.431116 0.015385 0.047991 -0.162672 0.000000 0.000000 0.000000 0.000000 0.000000 0.000000 0.000000 
-1.245022 16.590736 0.323321 8.108507 58.392766 6.823361 -6.549261 -0.396197 -1.633120 -1.698321 0.005707 -2.581336 -4.681159 -0.071794 2.640655 10.548159 -15.423900 -8.883403 -1.362961 -0.090363 -0.313552 0.000000 0.000000 0.000000 -6.693010 24.713279 0.909214 -86.120555 25.910955 12.134320 -3.449212 -27.336962 -0.023818 -13.943053 8.774942 -1.096001 0.054382 -0.129224 -0.000000 0.000000 0.000000 0.000000 0.000000 0.000000 0.000000 11.096910 -10.712803 -0.865099 46.087647 9.401360 9.638087 1.316513 55.712782 0.006990 0.425787 5.504421 0.019298 0.047847 -0.163664 0.000000 0.000000 0.000000 0.000000 0.000000 0.000000 0.000000 
-1.106593 16.576161 0.366236 8.139752 57.272852 6.769711 -6.641959 -0.528104 -1.523654 -1.717779 -0.117931 -2.578556 -4.722065 -0.194055 2.580307 10.587775 -15.464093 -8.863187 -1.414270 -0.094791 -0.306895 0.000000 0.000000 0.000000 -6.559065 24.247959 0.883622 -85.442047 25.501498 13.136242 -3.400074 -27.531705 -0.022979 -13.465254 8.668410 -1.045079 0.050974 -0.127542 -0.000000 0.000000 0.000000 0.000000 0.000000 0.000000 0.000000 11.276595 -10.790942 -0.890475 46.880628 9.243901 9.811717 1.332719 55.978406 0.007340 0.508199 5.596092 0.023812 0.047883 -0.164490 0.000000 0.000000 0.000000 0.000000 0.000000 0.000000 0.000000 
-0.969996 16.563014 0.409613 8.099325 56.115738 6.668082 -6.674951 -0.657771 -1.432493 -1.726465 -0.244032 -2.577446 -4.767408 -0.318659 2.526150 10.629845 -15.506135 -8.845408 -1.471074 -0.099656 -0.300719 0.000000 0.000000 0.000000 -6.443818 23.796048 0.853080 -84.658178 25.037866 14.025973 -3.356239 -27.644307 -0.022192 -12.917138 8.567899 -0.990250 0.046277 -0.125922 -0.000000 0.000000 0.000000 0.000000 0.000000 0.000000 0.000000 11.481248 -10.869798 -0.914076 47.702688 9.066244 9.968483 1.354916 56.157404 0.007730 0.589190 5.702405 0.028329 0.048203 -0.165072 0.000000 0.000000 0.000000 0.000000 0.000000 0.000000 0.000000 
-0.835085 16.551556 0.453649 7.993549 54.923639 6.523823 -6.649436 -0.785038 -1.359978 -1.724579 -0.372282 -2.577793 -4.816895 -0.445250 2.479390 10.675527 -15.549172 -8.830047 -1.532710 -0.104903 -0.295069 0.000000 0.000000 0.000000 -6.346569 23.364041 0.818770 -83.772919 24.524825 14.806790 -3.319254 -27.671317 -0.021490 -12.319670 8.471969 -0.933217 0.040424 -0.124407 -0.000000 0.000000 0.000000 0.000000 0.000000 0.000000 0.000000 11.709875 -10.949120 -0.936709 48.553043 8.867168 10.097424 1.383281 56.234687 0.008140 0.659577 5.818034 0.032548 0.048920 -0.165339 0.000000 0.000000 0.000000 0.000000 0.000000 0.000000 0.000000 
-0.701941 16.541855 0.498667 7.834972 53.703068 6.344147 -6.571462 -0.910474 -1.302442 -1.713183 -0.502687 -2.579028 -4.870043 -0.573745 2.439744 10.724809 -15.592199 -8.816174 -1.598388 -0.110474 -0.289755 0.000000 0.000000 0.000000 -6.262864 22.949773 0.782142 -82.793507 23.973313 15.477081 -3.290578 -27.615781 -0.020905 -11.692104 8.381068 -0.875481 0.033559 -0.123061 -0.000000 0.000000 0.000000 0.000000 0.000000 0.000000 0.000000 11.958884 -11.029184 -0.959066 49.435569 8.641912 10.184628 1.418000 56.197471 0.008556 0.710266 5.936938 0.035870 0.050139 -0.165232 0.000000 0.000000 0.000000 0.000000 0.000000 0.000000 0.000000 
-0.570756 16.533903 0.545018 7.639663 52.463929 6.137254 -6.450171 -1.035367 -1.253916 -1.693891 -0.635729 -2.580387 -4.926286 -0.704515 2.405580 10.776016 -15.634504 -8.802046 -1.667342 -0.116326 -0.284374 0.000000 0.000000 0.000000 -6.187433 22.543093 0.744613 -81.728831 23.399863 16.029901 -3.271385 -27.487403 -0.020452 -11.050391 8.297137 -0.818441 0.025828 -0.121946 -0.000000 0.000000 0.000000 0.000000 0.000000 0.000000 0.000000 12.222553 -11.111220 -0.981551 50.357677 8.383890 10.213392 1.459324 56.035382 0.008954 0.734234 6.052465 0.037794 0.051940 -0.164702 0.000000 0.000000 0.000000 0.000000 0.000000 0.000000 0.000000 
-0.441867 16.527625 0.593078 7.425154 51.217306 5.910803 -6.298156 -1.161904 -1.205900 -1.668887 -0.772495 -2.579727 -4.984620 -0.838454 2.379071 10.829300 -15.679542 -8.789887 -1.738315 -0.122306 -0.279662 0.000000 0.000000 0.000000 -6.104885 22.154044 0.708229 -80.586766 22.799184 16.494808 -3.262028 -27.280360 -0.020139 -10.405913 8.219952 -0.762700 0.017351 -0.121092 -0.000000 0.000000 0.000000 0.000000 0.000000 0.000000 0.000000 12.498939 -11.200314 -1.005667 51.321730 8.095111 10.172360 1.506760 55.741444 0.009314 0.721339 6.159036 0.037622 0.054374 -0.163731 0.000000 0.000000 0.000000 0.000000 0.000000 0.000000 0.000000 
-0.315661 16.522888 0.643100 7.207863 49.975256 5.670561 -6.127113 -1.291784 -1.149959 -1.640281 -0.913678 -2.575952 -5.044530 -0.976130 2.357919 10.881666 -15.727671 -8.778294 -1.810699 -0.128376 -0.275302 0.000000 0.000000 0.000000 -6.008226 21.768796 0.674282 -79.378003 22.189111 16.864736 -3.262915 -27.009551 -0.019967 -9.768623 8.156159 -0.709658 0.008271 -0.120554 -0.000000 0.000000 0.000000 0.000000 0.000000 0.000000 0.000000 12.782262 -11.299004 -1.031365 52.334657 7.769891 10.044249 1.560342 55.311966 0.009626 0.668084 6.251657 0.034949 0.057445 -0.162309 0.000000 0.000000 0.000000 0.000000 0.000000 0.000000 0.000000 
-0.192524 16.519544 0.695287 7.001750 48.748448 5.420687 -5.948442 -1.426728 -1.078002 -1.610115 -1.060028 -2.567694 -5.105399 -1.118185 2.341276 10.930642 -15.781035 -8.767533 -1.883859 -0.134469 -0.271435 0.000000 0.000000 0.000000 -5.888756 21.381053 0.644054 -78.112746 21.579692 17.141950 -3.274104 -26.685108 -0.019934 -9.146294 8.111941 -0.660016 -0.001285 -0.120354 -0.000000 0.000000 0.000000 0.000000 0.000000 0.000000 0.000000 13.068934 -11.411323 -1.058599 53.398110 7.407276 9.814923 1.619729 54.746843 0.009873 0.571539 6.326817 0.029778 0.061122 -0.160453 0.000000 0.000000 0.000000 0.000000 0.000000 0.000000 0.000000 
-0.072797 16.517409 0.749740 6.817588 47.545430 5.163550 -5.771724 -1.568261 -0.983262 -1.580120 -1.212273 -2.553422 -5.166662 -1.265250 2.330050 10.974862 -15.843217 -8.759643 -1.957277 -0.140504 -0.268681 0.000000 0.000000 0.000000 -5.737745 20.994599 0.618592 -76.799810 20.970872 17.338983 -3.295203 -26.312707 -0.020034 -8.544818 8.092813 -0.614274 -0.011206 -0.120475 -0.000000 0.000000 0.000000 0.000000 0.000000 0.000000 0.000000 13.358883 -11.542162 -1.087556 54.508144 7.011782 9.475540 1.684218 54.049832 0.010046 0.429936 6.382885 0.021707 0.065335 -0.158193 0.000000 0.000000 0.000000 0.000000 0.000000 0.000000 0.000000 
